<svg id="Capa_1" enable-background="new 0 0 512 512" height="512" viewBox="0 0 512 512" width="512" xmlns="http://www.w3.org/2000/svg"><g><path fill="#fff" d="m505.174 137.868c-4.258-2.767-9.627-3.19-14.266-1.13l-80 35.556c-5.417 2.407-8.908 7.779-8.908 13.706v188.072c-8.833-5.123-19.075-8.072-30-8.072-33.084 0-60 26.916-60 60s26.916 60 60 60 60-26.916 60-60v-170.252l71.092-31.596c5.417-2.407 8.908-7.779 8.908-13.707v-60c0-5.077-2.568-9.811-6.826-12.577z"/><path fill="#fff" d="m320 41c0-4.978-2.469-9.631-6.591-12.421-4.121-2.791-9.357-3.356-13.98-1.506l-200 80c-5.695 2.278-9.429 7.794-9.429 13.927v218.072c-8.833-5.122-19.075-8.072-30-8.072-33.084 0-60 26.916-60 60s26.916 60 60 60 60-26.916 60-60v-199.845l170-68v135.917c-8.833-5.123-19.075-8.072-30-8.072-33.084 0-60 26.916-60 60s26.916 60 60 60 60-26.916 60-60z"/></g></svg>